# xmcd
#
# Track frame offsets: 
#        150
#        15517
#        26435
#        48650
#        111832
#        129262
#        148012
#        171445
#        188532
#        213052
#        241280
#
# Disc length: 3311 seconds
#
# Revision: 0
# Processed by: cddbd v1.5.2PL0 Copyright (c) Steve Scherf et al.
# Submitted via: ExactAudioCopy v0.95b3
#
DISCID=8d0ced0b
DTITLE=Blue Oyster Cult  - God Save Blue Oyster Cult From Themselves (
DTITLE=FLAC)
DYEAR=1900
DGENRE=
TTITLE0=Transmaniacon MC
TTITLE1=This Ain't The Summer Of Love
TTITLE2=O.D.'d On Life Itself
TTITLE3=7 Screaming Diz-Busters (Live)
TTITLE4=Donovan's Monkey (Demo)
TTITLE5=Mes Dames Serat (Outtake From ST Sessions)
TTITLE6=(Don't Fear) The Reaper
TTITLE7=E.T.I. (Extra Terrestrial Intelligence)
TTITLE8=Dominance And Submission
TTITLE9=Hot Rails To Hell (Live) (Previously Unreleased And Only Avail
TTITLE9=able Here)
TTITLE10=John L. Sullivan (Demo) (Previously Unreleased And Only Avail
TTITLE10=able Here)
EXTD=
EXTT0=
EXTT1=
EXTT2=
EXTT3=
EXTT4=
EXTT5=
EXTT6=
EXTT7=
EXTT8=
EXTT9=
EXTT10=
PLAYORDER=
